<svg width="12" height="34" viewBox="0 0 12 34" fill="none" xmlns="http://www.w3.org/2000/svg">
<path fill-rule="evenodd" clip-rule="evenodd" d="M11.63 6C11.63 2.99557 9.19443 0.559998 6.19 0.559998C3.18557 0.559998 0.75 2.99557 0.75 6V22.45L5.23 25.66V33.48H7.15V25.66L11.63 22.45V6ZM9.71 15.2L7.15 17.76V15.36L9.71 12.8V15.2ZM5.27 15.36L2.71 12.8V15.2L5.27 17.76V15.36ZM9.71 10.08L6.19 13.6L2.67 10V7.6L6.19 11.12L9.71 7.6V10.08ZM9.59 5.09C9.17201 3.55477 7.7811 2.48704 6.19 2.48V2.44C4.58749 2.45191 3.19286 3.5389 2.79 5.09L6.19 8.48L9.59 5.09ZM2.67 21.48V17.88L5.23 20.44V23.3L2.67 21.48ZM7.15 20.44V23.31L9.71 21.47V17.88L7.15 20.44Z" fill="#FFAC12"/>
</svg>
