<svg width="14" height="11" viewBox="0 0 14 11" fill="none" xmlns="http://www.w3.org/2000/svg">
<path d="M6.04568 1.62353H7.95435C8.83759 1.62432 9.60446 2.22063 9.80702 3.06413C9.82401 3.13445 9.88794 3.18416 9.9616 3.18433H12.8864C12.9286 3.18448 12.9691 3.16814 12.999 3.13893C13.0289 3.10972 13.0457 3.07003 13.0457 3.02865V1.46728C13.0457 1.13612 12.9116 0.818523 12.6728 0.584407C12.4341 0.350291 12.1104 0.218842 11.7729 0.218994H2.22718C1.88966 0.218842 1.5659 0.350291 1.32719 0.584407C1.08847 0.818523 0.954346 1.13612 0.954346 1.46728V3.02865C0.954345 3.07003 0.971142 3.10972 1.00102 3.13893C1.03091 3.16814 1.07141 3.18448 1.1136 3.18433H4.03843C4.11224 3.18458 4.1764 3.13469 4.19301 3.06413C4.39557 2.22063 5.16244 1.62432 6.04568 1.62353Z" fill="black"/>
<path d="M0.636417 4.12134C0.467581 4.12119 0.305616 4.18693 0.186231 4.30406C0.0668464 4.4212 -0.000154698 4.58011 2.68218e-07 4.74577V8.0236C-2.50467e-07 8.32037 0.212885 8.57614 0.50925 8.63544C0.583199 8.65036 0.636306 8.71418 0.636417 8.78826V10.0526C0.636417 10.3974 0.92135 10.677 1.27283 10.677C1.62432 10.677 1.90925 10.3974 1.90925 10.0526V8.80428C1.9091 8.76289 1.92574 8.72315 1.95552 8.69383C1.98529 8.66451 2.02573 8.64803 2.06792 8.64803H11.9321C11.9743 8.64803 12.0147 8.66451 12.0445 8.69383C12.0743 8.72315 12.0909 8.76289 12.0907 8.80428V10.0526C12.0907 10.3974 12.3757 10.677 12.7272 10.677C13.0786 10.677 13.3636 10.3974 13.3636 10.0526V8.78826C13.3637 8.71418 13.4168 8.65036 13.4907 8.63544C13.7871 8.57614 14 8.32037 14 8.0236V4.74577C14.0002 4.58011 13.9332 4.4212 13.8138 4.30406C13.6944 4.18693 13.5324 4.12119 13.3636 4.12134H0.636417Z" fill="black"/>
</svg>
