<svg width="16" height="16" viewBox="0 0 16 16" fill="none" xmlns="http://www.w3.org/2000/svg">
<path fill-rule="evenodd" clip-rule="evenodd" d="M12.4999 2H14.3333C15.0696 2 15.6666 2.59695 15.6666 3.33333V14.6667C15.6666 15.403 15.0696 16 14.3333 16H1.66659C0.930206 16 0.333252 15.403 0.333252 14.6667V3.33333C0.333252 2.59695 0.930206 2 1.66659 2H2.66659C2.85068 2 2.99992 2.14924 2.99992 2.33333V3.83333C2.99992 4.10948 3.22378 4.33333 3.49992 4.33333C3.77606 4.33333 3.99992 4.10948 3.99992 3.83333V0.666667C3.99992 0.298477 4.2984 0 4.66659 0C5.03478 0 5.33325 0.298477 5.33325 0.666667V1.834C5.33362 1.92579 5.40813 2 5.49992 2H9.66658C9.85068 2 9.99992 2.14924 9.99992 2.33333V3.83333C9.99992 4.10948 10.2238 4.33333 10.4999 4.33333C10.7761 4.33333 10.9999 4.10948 10.9999 3.83333V0.666667C10.9999 0.298477 11.2984 0 11.6666 0C12.0348 0 12.3333 0.298477 12.3333 0.666667V1.83333C12.3333 1.92538 12.4079 2 12.4999 2ZM1.99992 14.6667H13.9999C14.184 14.6667 14.3333 14.5174 14.3333 14.3333V6.33333C14.3333 6.14924 14.184 6 13.9999 6H1.99992C1.81582 6 1.66659 6.14924 1.66659 6.33333V14.3333C1.66659 14.5174 1.81582 14.6667 1.99992 14.6667Z" fill="black"/>
</svg>
