<svg width="17" height="17" viewBox="0 0 17 17" fill="none" xmlns="http://www.w3.org/2000/svg">
<path fill-rule="evenodd" clip-rule="evenodd" d="M15.3333 9.93876C15.5178 9.94007 15.6935 10.0158 15.8193 10.1481C15.9455 10.2778 16.011 10.4532 16 10.6321C15.7997 13.9166 13.0268 16.4796 9.67333 16.48H6.32666C2.97324 16.4796 0.200326 13.9166 -4.91686e-06 10.6321C-0.00878807 10.4536 0.0560946 10.2791 0.179995 10.1481C0.304916 10.0142 0.481629 9.93814 0.666662 9.93876H3.07866C3.22565 9.94012 3.3562 9.84685 3.4 9.70917C3.5741 9.16596 4.08631 8.79564 4.66666 8.7934H8.00333C8.58368 8.79564 9.0959 9.16596 9.27 9.70917C9.31344 9.84569 9.44224 9.93868 9.588 9.93876H13.166C13.3501 9.93876 13.4993 9.79233 13.4993 9.6117V2.74343C13.5001 2.48492 13.3456 2.25024 13.1052 2.14458C12.8647 2.03892 12.5834 2.08212 12.3873 2.2548L12.114 2.52299C12.0251 2.61088 11.9943 2.74053 12.0347 2.8579C12.2671 3.53157 12.0907 4.2763 11.5793 4.78036L11.446 4.91446C11.1857 5.16981 10.7637 5.16981 10.5033 4.91446L8.74 3.18365C8.47974 2.92822 8.47974 2.51416 8.74 2.25872L8.87667 2.12463C9.39649 1.63738 10.147 1.46955 10.8307 1.68767C10.9494 1.72469 11.0793 1.69366 11.1673 1.60722L11.476 1.30436C12.0593 0.775516 12.9062 0.635402 13.634 0.947348C14.3617 1.25929 14.8325 1.96419 14.8333 2.74343V9.6117C14.8333 9.79233 14.9826 9.93876 15.1667 9.93876H15.3333ZM7.66667 14.0269C7.85076 14.0269 8 13.8804 8 13.6998V10.4293C8 10.2487 7.85076 10.1023 7.66667 10.1023H4.99999C4.8159 10.1023 4.66666 10.2487 4.66666 10.4293V13.6998C4.66666 13.8804 4.8159 14.0269 4.99999 14.0269H7.66667Z" fill="black"/>
<path d="M6.00001 4.76316C6.09626 4.76398 6.19155 4.74435 6.27934 4.7056L7.49001 4.15746C7.70663 4.0599 7.85374 3.85635 7.87594 3.62351C7.89813 3.39066 7.79203 3.16388 7.59761 3.0286C7.40318 2.89332 7.14996 2.87008 6.93334 2.96765L5.72067 3.51513C5.43638 3.64384 5.28168 3.94931 5.34883 4.24936C5.41599 4.5494 5.68691 4.76317 6.00001 4.76316Z" fill="black"/>
<path d="M9.41467 8.30943C9.75321 8.45114 10.1447 8.29683 10.2893 7.96471L10.8133 6.76111C10.9485 6.43097 10.7899 6.05538 10.4564 5.91571C10.1229 5.77603 9.73683 5.92349 9.58733 6.24762L9.06667 7.45318C8.92318 7.78394 9.07859 8.16632 9.41467 8.30943Z" fill="black"/>
<path d="M6.99063 6.71806C7.24968 6.97467 7.67168 6.97672 7.9333 6.72264L8.88129 5.80299C9.13583 5.54781 9.13477 5.13951 8.8789 4.88561C8.62303 4.63171 8.20691 4.62605 7.94396 4.87288L6.99597 5.79318C6.73424 6.04715 6.73185 6.46119 6.99063 6.71806Z" fill="black"/>
</svg>
